<svg xmlns="http://www.w3.org/2000/svg" viewBox="0 0 760 400" width="760" height="400" font-family="Apple SD Gothic Neo, Noto Sans KR, Malgun Gothic, sans-serif">
<rect width="760" height="400" fill="#ffffff"/>
<text x="380.0" y="26" text-anchor="middle" font-size="17" font-weight="700" fill="#111">모델 크기별 GSM8K 정답률 (LaMDA): CoT는 큰 모델에서만 이득</text>
<text x="380.0" y="46" text-anchor="middle" font-size="12" fill="#555">출처: Wei et al. (2022) Table 2 · 단위 % · B = 10억 개 파라미터</text>
<line x1="60" y1="308.0" x2="740" y2="308.0" stroke="#e5e7eb"/>
<text x="52" y="312.0" text-anchor="end" font-size="11" fill="#666">0</text>
<line x1="60" y1="262.0" x2="740" y2="262.0" stroke="#e5e7eb"/>
<text x="52" y="266.0" text-anchor="end" font-size="11" fill="#666">4</text>
<line x1="60" y1="216.0" x2="740" y2="216.0" stroke="#e5e7eb"/>
<text x="52" y="220.0" text-anchor="end" font-size="11" fill="#666">8</text>
<line x1="60" y1="170.0" x2="740" y2="170.0" stroke="#e5e7eb"/>
<text x="52" y="174.0" text-anchor="end" font-size="11" fill="#666">12</text>
<line x1="60" y1="124.0" x2="740" y2="124.0" stroke="#e5e7eb"/>
<text x="52" y="128.0" text-anchor="end" font-size="11" fill="#666">16</text>
<line x1="60" y1="78.0" x2="740" y2="78.0" stroke="#e5e7eb"/>
<text x="52" y="82.0" text-anchor="end" font-size="11" fill="#666">20</text>
<rect x="82.0" y="278.1" width="43.0" height="29.9" fill="#9aa5b1" rx="2"/>
<text x="103.5" y="274.1" text-anchor="middle" font-size="11" fill="#111">2.6</text>
<rect x="128.0" y="303.4" width="43.0" height="4.6" fill="#3b82f6" rx="2"/>
<text x="149.5" y="299.4" text-anchor="middle" font-size="11" fill="#111">0.4</text>
<text x="128.0" y="326" text-anchor="middle" font-size="12" fill="#222">420M</text>
<rect x="218.0" y="266.6" width="43.0" height="41.4" fill="#9aa5b1" rx="2"/>
<text x="239.5" y="262.6" text-anchor="middle" font-size="11" fill="#111">3.6</text>
<rect x="264.0" y="286.1" width="43.0" height="21.9" fill="#3b82f6" rx="2"/>
<text x="285.5" y="282.1" text-anchor="middle" font-size="11" fill="#111">1.9</text>
<text x="264.0" y="326" text-anchor="middle" font-size="12" fill="#222">2B</text>
<rect x="354.0" y="271.2" width="43.0" height="36.8" fill="#9aa5b1" rx="2"/>
<text x="375.5" y="267.2" text-anchor="middle" font-size="11" fill="#111">3.2</text>
<rect x="400.0" y="289.6" width="43.0" height="18.4" fill="#3b82f6" rx="2"/>
<text x="421.5" y="285.6" text-anchor="middle" font-size="11" fill="#111">1.6</text>
<text x="400.0" y="326" text-anchor="middle" font-size="12" fill="#222">8B</text>
<rect x="490.0" y="242.4" width="43.0" height="65.5" fill="#9aa5b1" rx="2"/>
<text x="511.5" y="238.4" text-anchor="middle" font-size="11" fill="#111">5.7</text>
<rect x="536.0" y="213.7" width="43.0" height="94.3" fill="#3b82f6" rx="2"/>
<text x="557.5" y="209.7" text-anchor="middle" font-size="11" fill="#111">8.2</text>
<text x="536.0" y="326" text-anchor="middle" font-size="12" fill="#222">68B</text>
<rect x="626.0" y="233.2" width="43.0" height="74.8" fill="#9aa5b1" rx="2"/>
<text x="647.5" y="229.2" text-anchor="middle" font-size="11" fill="#111">6.5</text>
<rect x="672.0" y="143.6" width="43.0" height="164.4" fill="#3b82f6" rx="2"/>
<text x="693.5" y="139.6" text-anchor="middle" font-size="11" fill="#111">14.3</text>
<text x="672.0" y="326" text-anchor="middle" font-size="12" fill="#222">137B</text>
<rect x="60" y="372" width="12" height="12" fill="#9aa5b1" rx="2"/>
<text x="77" y="382" font-size="12" fill="#222">일반 프롬프트</text>
<rect x="140.4" y="372" width="12" height="12" fill="#3b82f6" rx="2"/>
<text x="157.4" y="382" font-size="12" fill="#222">CoT 프롬프트</text>
</svg>