<svg xmlns="http://www.w3.org/2000/svg" viewBox="0 0 760 420" width="760" height="420" font-family="Apple SD Gothic Neo, Noto Sans KR, Malgun Gothic, sans-serif">
<rect width="760" height="420" fill="#ffffff"/>
<text x="380.0" y="26" text-anchor="middle" font-size="17" font-weight="700" fill="#111">예시를 어떻게 고르느냐에 따른 정확도 (MultiArith)</text>
<text x="380.0" y="46" text-anchor="middle" font-size="12" fill="#555">출처: Zhang et al. (2022) Table 1 · 단위 %</text>
<line x1="60" y1="328.0" x2="740" y2="328.0" stroke="#e5e7eb"/>
<text x="52" y="332.0" text-anchor="end" font-size="11" fill="#666">0</text>
<line x1="60" y1="278.0" x2="740" y2="278.0" stroke="#e5e7eb"/>
<text x="52" y="282.0" text-anchor="end" font-size="11" fill="#666">20</text>
<line x1="60" y1="228.0" x2="740" y2="228.0" stroke="#e5e7eb"/>
<text x="52" y="232.0" text-anchor="end" font-size="11" fill="#666">40</text>
<line x1="60" y1="178.0" x2="740" y2="178.0" stroke="#e5e7eb"/>
<text x="52" y="182.0" text-anchor="end" font-size="11" fill="#666">60</text>
<line x1="60" y1="128.0" x2="740" y2="128.0" stroke="#e5e7eb"/>
<text x="52" y="132.0" text-anchor="end" font-size="11" fill="#666">80</text>
<line x1="60" y1="78.0" x2="740" y2="78.0" stroke="#e5e7eb"/>
<text x="52" y="82.0" text-anchor="end" font-size="11" fill="#666">100</text>
<rect x="105.0" y="131.2" width="43.0" height="196.8" fill="#3b82f6" rx="2"/>
<text x="126.5" y="127.2" text-anchor="middle" font-size="11" fill="#111">78.7</text>
<text x="128.0" y="346" text-anchor="middle" font-size="12" fill="#222">Zero-Shot</text>
<text x="128.0" y="360" text-anchor="middle" font-size="12" fill="#222">-CoT</text>
<rect x="241.0" y="121.0" width="43.0" height="207.0" fill="#3b82f6" rx="2"/>
<text x="262.5" y="117.0" text-anchor="middle" font-size="11" fill="#111">82.8</text>
<text x="264.0" y="346" text-anchor="middle" font-size="12" fill="#222">Retrieval</text>
<text x="264.0" y="360" text-anchor="middle" font-size="12" fill="#222">-Q-CoT</text>
<text x="264.0" y="374" text-anchor="middle" font-size="12" fill="#222">(유사도)</text>
<rect x="377.0" y="112.5" width="43.0" height="215.5" fill="#3b82f6" rx="2"/>
<text x="398.5" y="108.5" text-anchor="middle" font-size="11" fill="#111">86.2</text>
<text x="400.0" y="346" text-anchor="middle" font-size="12" fill="#222">Random</text>
<text x="400.0" y="360" text-anchor="middle" font-size="12" fill="#222">-Q-CoT</text>
<text x="400.0" y="374" text-anchor="middle" font-size="12" fill="#222">(무작위)</text>
<rect x="513.0" y="98.8" width="43.0" height="229.2" fill="#3b82f6" rx="2"/>
<text x="534.5" y="94.8" text-anchor="middle" font-size="11" fill="#111">91.7</text>
<text x="536.0" y="346" text-anchor="middle" font-size="12" fill="#222">Manual</text>
<text x="536.0" y="360" text-anchor="middle" font-size="12" fill="#222">-CoT</text>
<text x="536.0" y="374" text-anchor="middle" font-size="12" fill="#222">(사람 제작)</text>
<rect x="649.0" y="98.0" width="43.0" height="230.0" fill="#3b82f6" rx="2"/>
<text x="670.5" y="94.0" text-anchor="middle" font-size="11" fill="#111">92</text>
<text x="672.0" y="346" text-anchor="middle" font-size="12" fill="#222">Auto-CoT</text>
<text x="672.0" y="360" text-anchor="middle" font-size="12" fill="#222">(군집 다양성)</text>
</svg>